<?xml version="1.0" encoding="UTF-8"?>
<svg xmlns="http://www.w3.org/2000/svg" xmlns:xlink="http://www.w3.org/1999/xlink" width="512px" height="512px" viewBox="0 0 512 512" version="1.1">
<g id="surface1">
<path style=" stroke:none;fill-rule:nonzero;fill:rgb(9.803922%,3.529412%,20%);fill-opacity:1;" d="M 116 144 L 116 176 C 116 180.417969 119.582031 184 124 184 L 124 472 C 124 494.089844 141.910156 512 164 512 L 356 512 C 378.089844 512 396 494.089844 396 472 L 396 40 C 396 17.910156 378.089844 0 356 0 L 164 0 C 141.910156 0 124 17.910156 124 40 L 124 72 C 119.582031 72 116 75.582031 116 80 L 116 112 C 116 116.417969 119.582031 120 124 120 L 124 136 C 119.582031 136 116 139.582031 116 144 Z M 164 16 L 356 16 C 367.839844 15.835938 378.027344 24.328125 380 36 L 356 36 C 345.535156 36.136719 335.6875 40.984375 329.199219 49.199219 C 324.128906 55.816406 316.335938 59.785156 308 60 L 212 60 C 203.664062 59.785156 195.871094 55.816406 190.800781 49.199219 C 184.3125 40.984375 174.464844 36.136719 164 36 L 140.398438 36 C 142.347656 24.476562 152.3125 16.03125 164 16 Z M 356 496 L 164 496 C 150.746094 496 140 485.253906 140 472 L 140 44 L 164 44 C 172.335938 44.214844 180.128906 48.183594 185.199219 54.800781 C 191.6875 63.015625 201.535156 67.863281 212 68 L 308 68 C 318.464844 67.863281 328.3125 63.015625 334.800781 54.800781 C 339.871094 48.183594 347.664062 44.214844 356 44 L 380 44 L 380 472 C 380 485.253906 369.253906 496 356 496 Z M 356 496 "/>
<path style=" stroke:none;fill-rule:nonzero;fill:rgb(9.803922%,3.529412%,20%);fill-opacity:1;" d="M 260 52 C 266.628906 52 272 46.628906 272 40 C 272 33.371094 266.628906 28 260 28 C 253.371094 28 248 33.371094 248 40 C 248 46.628906 253.371094 52 260 52 Z M 260 36 C 262.210938 36 264 37.789062 264 40 C 264 42.210938 262.210938 44 260 44 C 257.789062 44 256 42.210938 256 40 C 256 37.789062 257.789062 36 260 36 Z M 260 36 "/>
<path style=" stroke:none;fill-rule:nonzero;fill:rgb(9.803922%,3.529412%,20%);fill-opacity:1;" d="M 300 40 C 300 35.582031 296.417969 32 292 32 C 287.582031 32 284 35.582031 284 40 C 284 44.417969 287.582031 48 292 48 C 296.417969 48 300 44.417969 300 40 Z M 300 40 "/>
<path style=" stroke:none;fill-rule:nonzero;fill:rgb(9.803922%,3.529412%,20%);fill-opacity:1;" d="M 232 424 C 232 419.582031 228.417969 416 224 416 C 219.582031 416 216 419.582031 216 424 C 216 428.417969 219.582031 432 224 432 C 228.417969 432 232 428.417969 232 424 Z M 232 424 "/>
<path style=" stroke:none;fill-rule:nonzero;fill:rgb(9.803922%,3.529412%,20%);fill-opacity:1;" d="M 264 424 C 264 419.582031 260.417969 416 256 416 C 251.582031 416 248 419.582031 248 424 C 248 428.417969 251.582031 432 256 432 C 260.417969 432 264 428.417969 264 424 Z M 264 424 "/>
<path style=" stroke:none;fill-rule:nonzero;fill:rgb(9.803922%,3.529412%,20%);fill-opacity:1;" d="M 296 424 C 296 419.582031 292.417969 416 288 416 C 283.582031 416 280 419.582031 280 424 C 280 428.417969 283.582031 432 288 432 C 292.417969 432 296 428.417969 296 424 Z M 296 424 "/>
<path style=" stroke:none;fill-rule:nonzero;fill:rgb(9.803922%,3.529412%,20%);fill-opacity:1;" d="M 236 40 C 236 35.582031 232.417969 32 228 32 C 223.582031 32 220 35.582031 220 40 C 220 44.417969 223.582031 48 228 48 C 232.417969 48 236 44.417969 236 40 Z M 236 40 "/>
<path style=" stroke:none;fill-rule:nonzero;fill:rgb(9.803922%,3.529412%,20%);fill-opacity:1;" d="M 199.121094 140 L 176.878906 140 C 169.765625 140 164 145.765625 164 152.878906 L 164 175.121094 C 164 182.234375 169.765625 188 176.878906 188 L 199.121094 188 C 206.234375 188 212 182.234375 212 175.121094 L 212 152.878906 C 212 145.765625 206.234375 140 199.121094 140 Z M 204 175.121094 C 204 177.816406 201.816406 180 199.121094 180 L 176.878906 180 C 174.183594 180 172 177.816406 172 175.121094 L 172 152.878906 C 172 150.183594 174.183594 148 176.878906 148 L 199.121094 148 C 201.816406 148 204 150.183594 204 152.878906 Z M 204 175.121094 "/>
<path style=" stroke:none;fill-rule:nonzero;fill:rgb(9.803922%,3.529412%,20%);fill-opacity:1;" d="M 248.878906 188 L 271.121094 188 C 278.234375 188 284 182.234375 284 175.121094 L 284 152.878906 C 284 145.765625 278.234375 140 271.121094 140 L 248.878906 140 C 241.765625 140 236 145.765625 236 152.878906 L 236 175.121094 C 236 182.234375 241.765625 188 248.878906 188 Z M 244 152.878906 C 244 150.183594 246.183594 148 248.878906 148 L 271.121094 148 C 273.816406 148 276 150.183594 276 152.878906 L 276 175.121094 C 276 177.816406 273.816406 180 271.121094 180 L 248.878906 180 C 246.183594 180 244 177.816406 244 175.121094 Z M 244 152.878906 "/>
<path style=" stroke:none;fill-rule:nonzero;fill:rgb(9.803922%,3.529412%,20%);fill-opacity:1;" d="M 343.121094 140 L 320.878906 140 C 313.765625 140 308 145.765625 308 152.878906 L 308 175.121094 C 308 182.234375 313.765625 188 320.878906 188 L 343.121094 188 C 350.234375 188 356 182.234375 356 175.121094 L 356 152.878906 C 356 145.765625 350.234375 140 343.121094 140 Z M 348 175.121094 C 348 177.816406 345.816406 180 343.121094 180 L 320.878906 180 C 318.183594 180 316 177.816406 316 175.121094 L 316 152.878906 C 316 150.183594 318.183594 148 320.878906 148 L 343.121094 148 C 345.816406 148 348 150.183594 348 152.878906 Z M 348 175.121094 "/>
<path style=" stroke:none;fill-rule:nonzero;fill:rgb(9.803922%,3.529412%,20%);fill-opacity:1;" d="M 199.121094 212 L 176.878906 212 C 169.765625 212 164 217.765625 164 224.878906 L 164 247.121094 C 164 254.234375 169.765625 260 176.878906 260 L 199.121094 260 C 206.234375 260 212 254.234375 212 247.121094 L 212 224.878906 C 212 217.765625 206.234375 212 199.121094 212 Z M 204 247.121094 C 204 249.816406 201.816406 252 199.121094 252 L 176.878906 252 C 174.183594 252 172 249.816406 172 247.121094 L 172 224.878906 C 172 222.183594 174.183594 220 176.878906 220 L 199.121094 220 C 201.816406 220 204 222.183594 204 224.878906 Z M 204 247.121094 "/>
<path style=" stroke:none;fill-rule:nonzero;fill:rgb(9.803922%,3.529412%,20%);fill-opacity:1;" d="M 248.878906 260 L 271.121094 260 C 278.234375 260 284 254.234375 284 247.121094 L 284 224.878906 C 284 217.765625 278.234375 212 271.121094 212 L 248.878906 212 C 241.765625 212 236 217.765625 236 224.878906 L 236 247.121094 C 236 254.234375 241.765625 260 248.878906 260 Z M 244 224.878906 C 244 222.183594 246.183594 220 248.878906 220 L 271.121094 220 C 273.816406 220 276 222.183594 276 224.878906 L 276 247.121094 C 276 249.816406 273.816406 252 271.121094 252 L 248.878906 252 C 246.183594 252 244 249.816406 244 247.121094 Z M 244 224.878906 "/>
<path style=" stroke:none;fill-rule:nonzero;fill:rgb(9.803922%,3.529412%,20%);fill-opacity:1;" d="M 343.121094 212 L 320.878906 212 C 313.765625 212 308 217.765625 308 224.878906 L 308 247.121094 C 308 254.234375 313.765625 260 320.878906 260 L 343.121094 260 C 350.234375 260 356 254.234375 356 247.121094 L 356 224.878906 C 356 217.765625 350.234375 212 343.121094 212 Z M 348 247.121094 C 348 249.816406 345.816406 252 343.121094 252 L 320.878906 252 C 318.183594 252 316 249.816406 316 247.121094 L 316 224.878906 C 316 222.183594 318.183594 220 320.878906 220 L 343.121094 220 C 345.816406 220 348 222.183594 348 224.878906 Z M 348 247.121094 "/>
<path style=" stroke:none;fill-rule:nonzero;fill:rgb(9.803922%,3.529412%,20%);fill-opacity:1;" d="M 199.121094 284 L 176.878906 284 C 169.765625 284 164 289.765625 164 296.878906 L 164 319.121094 C 164 326.234375 169.765625 332 176.878906 332 L 199.121094 332 C 206.234375 332 212 326.234375 212 319.121094 L 212 296.878906 C 212 289.765625 206.234375 284 199.121094 284 Z M 204 319.121094 C 204 321.816406 201.816406 324 199.121094 324 L 176.878906 324 C 174.183594 324 172 321.816406 172 319.121094 L 172 296.878906 C 172 294.183594 174.183594 292 176.878906 292 L 199.121094 292 C 201.816406 292 204 294.183594 204 296.878906 Z M 204 319.121094 "/>
<path style=" stroke:none;fill-rule:nonzero;fill:rgb(9.803922%,3.529412%,20%);fill-opacity:1;" d="M 284 319.121094 L 284 296.878906 C 284 289.765625 278.234375 284 271.121094 284 L 248.878906 284 C 241.765625 284 236 289.765625 236 296.878906 L 236 319.121094 C 236 326.234375 241.765625 332 248.878906 332 L 271.121094 332 C 278.234375 332 284 326.234375 284 319.121094 Z M 276 319.121094 C 276 321.816406 273.816406 324 271.121094 324 L 248.878906 324 C 246.183594 324 244 321.816406 244 319.121094 L 244 296.878906 C 244 294.183594 246.183594 292 248.878906 292 L 271.121094 292 C 273.816406 292 276 294.183594 276 296.878906 Z M 276 319.121094 "/>
<path style=" stroke:none;fill-rule:nonzero;fill:rgb(9.803922%,3.529412%,20%);fill-opacity:1;" d="M 343.121094 284 L 320.878906 284 C 313.765625 284 308 289.765625 308 296.878906 L 308 319.121094 C 308 326.234375 313.765625 332 320.878906 332 L 343.121094 332 C 350.234375 332 356 326.234375 356 319.121094 L 356 296.878906 C 356 289.765625 350.234375 284 343.121094 284 Z M 348 319.121094 C 348 321.816406 345.816406 324 343.121094 324 L 320.878906 324 C 318.183594 324 316 321.816406 316 319.121094 L 316 296.878906 C 316 294.183594 318.183594 292 320.878906 292 L 343.121094 292 C 345.816406 292 348 294.183594 348 296.878906 Z M 348 319.121094 "/>
</g>
</svg>
